<?xml version="1.0" encoding="utf-8"?>
<!-- Generator: Adobe Illustrator 24.2.3, SVG Export Plug-In . SVG Version: 6.00 Build 0)  -->
<svg version="1.1" id="Layer_1" xmlns="http://www.w3.org/2000/svg" xmlns:xlink="http://www.w3.org/1999/xlink" x="0px" y="0px"
	 viewBox="0 0 1024 1024" style="enable-background:new 0 0 1024 1024;" xml:space="preserve">
<style type="text/css">
	.st0{fill:none;stroke:#1C1C1B;stroke-width:16.7284;stroke-linecap:round;stroke-miterlimit:10;}
	.st1{fill:none;stroke:#1C1C1B;stroke-width:15.6945;stroke-linecap:round;stroke-miterlimit:10;}
	.st2{fill:none;stroke:#1C1C1B;stroke-width:16.7284;stroke-linecap:round;stroke-linejoin:round;stroke-miterlimit:10;}
	.st3{fill:#1C1C1B;}
	.st4{fill:none;stroke:#1D1D1B;stroke-width:16.7284;stroke-linecap:round;stroke-linejoin:round;stroke-miterlimit:10;}
	.st5{fill:none;stroke:#1C1C1B;stroke-width:17.7537;stroke-linecap:round;stroke-miterlimit:10;}
</style>
<g>
	<line class="st0" x1="953.6" y1="395.81" x2="953.6" y2="596.56"/>
	<line class="st1" x1="444.77" y1="395.8" x2="441.46" y2="703.91"/>
	<path class="st2" d="M322.65,432.34c2.41-3.98,7.61-2.21,8.08,3.05c0.55,6.1-6.27,9.34-12.19,7.76c-7.4-1.98-11.79-9.58-9.81-16.97
		c2.47-9.24,12.68-15.12,23.28-12.43c11.59,2.95,18.53,17.1,15.44,28.66c-3.86,14.44-20.36,22.31-34.8,18.45
		c-18.06-4.83-29.3-24.65-24.47-42.7c6.04-22.57,30.53-36,52.62-31.61c34.21,6.79,42.17,39.1,38.14,63.7
		c-6.64,40.59-63.82,77.34-85.86,79.46c-12.79,1.23-23.38-15.79-2.71-21.65c29.52-8.36,191.55,124.36,260.08,166.7
		c129.04,79.71,205.93,29.18,210.27-21.17c2.96-34.38-25.21-56.23-53.24-51.92c-21.91,3.36-40.18,25.37-35.49,48.17
		c3.96,19.28,25.77,31.25,44.64,25.51c15.1-4.59,23.7-20.54,19.21-35.63c-3.59-12.07-16.29-18.87-28.37-15.2
		c-9.66,2.94-17.15,13.44-14.28,23.09c2.3,7.72,11.67,13.25,20.12,10.97c6.24-1.68,9.72-9.95,7.88-16.13
		c-1.47-4.94-6.67-7.73-11.62-6.23c-3.96,1.2-4.92,4.78-4.62,7.79c0.33,3.29,3.86,6.5,7.02,5.54c2.53-0.77,3.98-3.45,3.22-5.98"/>
	<g>
		<path class="st2" d="M129.38,374.11c17.82-20.83,38.19-25.65,29.9,26.41c-2.7,16.93-75.36,16.92-83.91,0.37
			c-10.12-19.59,77.12-104.52,101.54-105.22c32.43-0.94,36.87,132.78,11.99,154.96C172.5,465.27,23.35,466.31,3.23,437.86
			c-28.24-39.94,135.81-218.76,207.63-207.14c68.67,11.11,30.19,456.49,41.45,617.16v5.57c-25.44-84.42-25.88-130.52-71.28-151.21
			c-36.32-16.56-77.3-0.92-93.86,35.4c-13.25,29.06-2.02,62.23,27.04,75.47c23.25,10.6,50.68,0.34,61.28-22.9
			c8.48-18.6,1.61-41.92-16.99-50.4c-14.88-6.78-35.11-1.28-41.51,13.76c-6.03,14.15-0.03,28.83,12.69,33.64
			c9.79,3.71,21.05,1.09,25.39-8.43c3.47-7.62,1.7-16.53-5.91-20.01c-6.09-2.78-14.3-0.55-14.66,6.14c-0.32,5.9,3.11,8.53,7.71,8.05
			"/>
		<circle class="st3" cx="132.58" cy="380.58" r="14.93"/>
	</g>
	<g>
		<path class="st0" d="M505.03,395.8c-2.67,143.26,3.47,306.76,3.47,390.03"/>
	</g>
	<path class="st4" d="M772.19,481.62c2.46,4.22,1.97,40.63-0.56,38.77c-8.52-6.27-27.57-16.73-36.47-23.85
		c-5.54-4.43,51.6-67.49,59.41-68.27s6.27,164.09,1.35,157.93c-28.04-35.17-97.29-75.64-100.2-89.59
		c-2.67-12.82,65.23-97.79,100.71-103.76c41.46-6.97,103.91,27.74,113.75,65.01c6.53,24.72-4.05,56.09-31.97,62.53
		c-21.39,4.93-44.61-6.61-51.38-27.48c-5.42-16.7,3.73-34.63,20.43-40.05c13.36-4.34,27.7,2.98,32.04,16.34
		c3.47,10.69-2.38,22.16-13.07,25.63c-8.55,2.77-17.73-1.91-20.51-10.46c-2.22-6.84,1.53-14.18,8.37-16.4
		c5.47-1.78,11.35,1.22,13.12,6.69c1.42,4.38-0.98,9.08-5.35,10.5"/>
	<path class="st4" d="M645.7,395.81c-29.15,14.39-97.84,88-95.16,100.82c2.91,13.95,83.63,57.51,96.8,77.86
		c4.28,6.62,9.86-146.98,2.05-146.2s-64.95,63.84-59.41,68.27c8.9,7.12,26.97,15.37,36.07,24.22c1.21,1.18,3.2-35.67,0.74-39.14"/>
	<g>
		<path class="st3" d="M522.65,305.02c1,0.3,1.99,0.64,2.96,1.01c0.98,0.38,2.01,0.94,2.97,1.46c1.96,1.14,3.85,2.62,5.46,4.38
			c0.82,0.85,1.5,1.83,2.18,2.79c0.66,0.97,1.17,1.99,1.69,3.02c0.48,1.02,0.83,2.05,1.18,3.1c0.3,1.03,0.51,2.04,0.72,3.08
			c0.66,4.06,0.3,7.83-0.61,11.26c-0.93,3.43-2.44,6.56-4.44,9.36c-2,2.8-4.49,5.25-7.37,7.21c-2.89,1.93-6.14,3.31-9.41,4.1
			c-3.3,0.83-6.53,0.9-9.61,0.72c-1.48-0.18-3.03-0.31-4.4-0.66l-2.1-0.48c-0.67-0.19-1.31-0.41-1.97-0.62
			c-5.2-1.73-9.48-4.23-13.28-6.92l-1.41-1.02l-0.71-0.52l-0.8-0.66l-1.57-1.33c-0.52-0.45-0.98-0.94-1.46-1.41
			c-0.47-0.48-0.96-0.95-1.41-1.45l-1.29-1.52c-0.88-1.01-1.59-2.08-2.35-3.14c-2.91-4.27-4.91-8.78-6.33-13.25
			c-1.41-4.47-2.3-8.92-2.79-13.3c-0.95-8.76-0.55-17.27,0.69-25.49c1.24-8.23,3.3-16.19,6-23.88
			c5.43-15.35,13.22-29.69,23.12-42.44c4.94-6.37,10.38-12.36,16.31-17.82c5.93-5.46,12.28-10.48,19.06-14.84
			c13.51-8.78,28.53-15.21,44.1-18.83c15.57-3.68,31.57-4.7,47.26-3.68l5.87,0.47l5.84,0.67c1.95,0.22,3.95,0.58,5.92,0.87
			c1.97,0.36,3.93,0.75,5.88,1.16c7.8,1.74,15.41,4.21,22.72,7.27c14.66,6.11,27.98,14.66,40.13,24.3
			c12.18,9.65,23.13,20.54,33.47,31.8c20.67,22.58,38.38,47.28,56.8,70.9c4.62,5.89,9.29,11.71,14.16,17.28
			c4.85,5.59,9.94,10.91,15.4,15.59c2.73,2.33,5.58,4.45,8.52,6.24c2.95,1.78,5.99,3.24,9.08,4.06c0.77,0.22,1.54,0.33,2.31,0.51
			c0.84,0.11,1.69,0.26,2.52,0.33c1.68,0.19,3.34,0.24,4.96,0.17c3.25-0.12,6.33-0.82,9-2.13c5.36-2.55,8.89-7.89,10.01-14.03
			c0.57-3.05,0.61-6.26,0.03-9.26c-0.55-2.97-1.72-5.82-3.23-7.55c-0.37-0.42-0.75-0.77-1.11-1.05c-0.36-0.26-0.7-0.43-1.01-0.54
			c-0.31-0.13-0.6-0.15-0.9-0.14c-0.3,0-0.62,0.03-1,0.15c-0.18,0.03-0.39,0.14-0.6,0.19l-1.08,0.4c-0.37,0.12-0.71,0.27-1.04,0.43
			c-0.33,0.16-0.69,0.28-0.99,0.45c-1.28,0.62-2.34,1.36-3.11,2.08c-0.77,0.73-1.17,1.44-1.28,1.97c-0.14,0.53-0.06,0.94,0.09,1.39
			c0.13,0.43,0.57,0.9,0.71,0.86c0.03-0.04,0.03-0.26-0.79-0.67c-0.44-0.21-1.05-0.39-1.98-0.4c-0.43,0.03-0.93,0.06-1.4,0.21
			c-0.46,0.15-0.9,0.29-1.29,0.56c3.9-2.48,9.07-1.33,11.55,2.57c2.48,3.9,1.33,9.07-2.57,11.55c-0.82,0.46-1.65,0.88-2.57,1.14
			c-0.93,0.27-1.88,0.45-2.78,0.46c-1.88,0.09-3.42-0.34-4.75-0.85c-2.59-1.08-4.08-2.54-5.32-3.97c-2.35-2.88-3.48-6-3.89-9.3
			c-0.38-3.28,0.23-6.76,1.7-9.64c1.43-2.92,3.58-5.13,5.73-6.76c2.17-1.64,4.42-2.79,6.61-3.62c0.55-0.23,1.09-0.39,1.64-0.58
			c0.55-0.19,1.09-0.36,1.63-0.5l1.62-0.43c0.71-0.15,1.4-0.32,2.16-0.4c2.95-0.42,6.35,0.09,9.13,1.48c1.4,0.68,2.64,1.55,3.73,2.5
			c1.07,0.96,1.98,1.99,2.77,3.06c1.55,2.14,2.61,4.37,3.37,6.6c0.78,2.23,1.23,4.47,1.5,6.7c0.5,4.46,0.27,8.9-0.77,13.21
			c-1.05,4.3-2.86,8.51-5.65,12.17c-2.76,3.65-6.51,6.68-10.67,8.55c-4.17,1.91-8.63,2.7-12.91,2.79c-2.14,0.06-4.26-0.05-6.33-0.31
			c-1.04-0.1-2.05-0.29-3.08-0.45c-1.07-0.25-2.16-0.44-3.2-0.75c-4.18-1.19-8-3.03-11.48-5.16c-3.49-2.13-6.67-4.56-9.71-7.08
			c-3.04-2.53-5.86-5.22-8.61-7.95c-2.74-2.74-5.39-5.54-7.96-8.39c-5.15-5.69-10.03-11.54-14.82-17.42
			c-9.56-11.78-18.77-23.7-28.21-35.35c-9.44-11.65-19.07-23.08-29.29-33.85c-10.21-10.77-21.04-20.88-32.71-29.7
			c-11.66-8.79-24.17-16.35-37.51-21.52c-6.66-2.6-13.5-4.63-20.44-6c-1.74-0.32-3.49-0.61-5.23-0.9c-1.77-0.21-3.48-0.48-5.28-0.64
			l-5.41-0.46l-5.41-0.27c-14.4-0.5-28.78,0.9-42.46,4.58c-13.69,3.64-26.63,9.65-38.14,17.68c-5.77,4-11.12,8.57-16.1,13.51
			c-4.99,4.93-9.52,10.31-13.61,16.01c-8.17,11.38-14.55,24.09-18.57,37.37c-2.02,6.63-3.45,13.39-4.16,20.11
			c-0.73,6.71-0.69,13.4,0.26,19.6c0.95,6.16,3.01,11.87,5.94,15.63c0.38,0.44,0.71,0.95,1.12,1.32l0.57,0.61
			c0.19,0.2,0.4,0.35,0.6,0.54c0.2,0.17,0.38,0.38,0.59,0.52l0.62,0.45l0.3,0.24l0.45,0.29l0.91,0.59c2.41,1.55,4.82,2.69,6.82,3.21
			l0.74,0.2c0.23,0.02,0.45,0.06,0.67,0.09c0.47,0.12,0.81,0.05,1.2,0.11c0.68-0.06,1.26-0.07,1.61-0.27
			c0.37-0.16,0.62-0.33,0.84-0.52c0.2-0.22,0.39-0.48,0.53-0.79c0.15-0.29,0.24-0.64,0.24-0.86c0.01-0.22-0.09-0.3-0.09,0.05
			c-0.01,0.32,0.22,1.19,0.88,1.97c0.65,0.8,1.5,1.21,1.73,1.28c-7.41-1.91-11.87-9.46-9.97-16.87
			C507.69,307.57,515.24,303.11,522.65,305.02z"/>
	</g>
	<path class="st0" d="M561.5,557.79c-10.65,14.97-7.15,35.74,7.81,46.39c11.97,8.52,28.59,5.72,37.11-6.25
		c6.82-9.58,4.58-22.87-5-29.69c-7.66-5.45-18.3-3.66-23.75,4c-4.36,6.13-2.93,14.64,3.2,19c4.9,3.49,11.71,2.34,15.2-2.56
		c2.79-3.92,1.88-9.37-2.05-12.16"/>
	<path class="st5" d="M272.16,358.89c-4.28,14.73,17.16,18.09,32.96,18.81c130.56,5.95,682.65,8.51,697.11,15.64"/>
	<path class="st2" d="M1000.58,393.33c13.7,0.79,24.17,12.53,23.38,26.23c-0.63,10.96-10.02,19.33-20.98,18.7
		c-8.77-0.5-15.47-8.02-14.96-16.78c0.4-7.01,6.41-12.37,13.43-11.97c5.61,0.32,9.9,5.13,9.58,10.74c-0.26,4.49-4.1,7.92-8.59,7.66
		c-3.59-0.21-6.33-3.28-6.13-6.87"/>
	<path class="st2" d="M953.6,597.47c0.16,13.72,11.41,24.71,25.13,24.56c10.98-0.13,19.77-9.12,19.65-20.1
		c-0.1-8.78-7.3-15.82-16.08-15.72c-7.02,0.08-12.65,5.84-12.57,12.86c0.06,5.62,4.67,10.12,10.29,10.06
		c4.5-0.05,8.1-3.74,8.05-8.23c-0.04-3.6-2.99-6.48-6.59-6.44"/>
	<path class="st2" d="M508.54,786.28c-0.79,13.7,9.68,25.44,23.37,26.23c10.96,0.63,20.35-7.74,20.98-18.7
		c0.5-8.77-6.19-16.28-14.96-16.79c-7.01-0.4-13.03,4.95-13.43,11.97c-0.32,5.61,3.96,10.42,9.57,10.74
		c4.49,0.26,8.34-3.17,8.6-7.66c0.21-3.59-2.54-6.67-6.13-6.88"/>
	<path class="st2" d="M441.92,704.14c-0.79,13.7,9.68,25.44,23.37,26.23c10.96,0.63,20.35-7.74,20.98-18.7
		c0.5-8.77-6.19-16.28-14.96-16.79c-7.01-0.4-13.03,4.95-13.43,11.97c-0.32,5.61,3.96,10.42,9.57,10.74
		c4.49,0.26,8.34-3.17,8.6-7.66c0.21-3.59-2.54-6.67-6.13-6.88"/>
</g>
</svg>
